<svg xmlns="http://www.w3.org/2000/svg" width="128" height="128" viewBox="0 0 128 128"><defs><linearGradient id="face" x2="0.25" y2="1"><stop stop-color="#b69bc5"/><stop offset=".55" stop-color="#aa8bbc"/><stop offset="1" stop-color="#9b7eab"/></linearGradient></defs><path d="M13 6H115L123 14V115L115 124H13L5 116V14Z" fill="#171711" opacity=".45"/><path d="M12 3H114L122 11V112L114 120H12L4 112V11Z" fill="#705c7c" stroke="#29241a" stroke-width="1.5"/><path d="M12 4H114L106 15H21L5 12Z" fill="#d3c3dc"/><path d="M5 12L21 24V103L13 118 5 111Z" fill="#b9a0c8"/><path d="M114 5L121 12V111L109 103V23Z" fill="#8f759e"/><path d="M13 119L23 106H106L115 118Z" fill="#7a6487"/><path d="M22 16H105L112 23V102L104 110H22L15 102V23Z" fill="url(#face)"/><circle cx="54.2" cy="35.3" r="0.75" fill="#e1d6e8" opacity=".11"/><circle cx="65.9" cy="78.9" r="0.72" fill="#e1d6e8" opacity=".11"/><circle cx="30.3" cy="104.3" r="0.32" fill="#44384b" opacity=".11"/><circle cx="33.8" cy="54.3" r="0.62" fill="#44384b" opacity=".11"/><circle cx="32.9" cy="58.9" r="0.72" fill="#44384b" opacity=".11"/><circle cx="100.1" cy="40.3" r="0.73" fill="#44384b" opacity=".11"/><circle cx="101.7" cy="103.9" r="0.79" fill="#e1d6e8" opacity=".11"/><circle cx="104.6" cy="86.4" r="0.26" fill="#44384b" opacity=".11"/><circle cx="52.4" cy="52.1" r="0.53" fill="#44384b" opacity=".11"/><circle cx="52.8" cy="30.9" r="0.49" fill="#44384b" opacity=".11"/><circle cx="95.6" cy="20.8" r="0.32" fill="#e1d6e8" opacity=".11"/><circle cx="25.8" cy="43.6" r="0.64" fill="#e1d6e8" opacity=".11"/><circle cx="51.3" cy="21.1" r="0.51" fill="#44384b" opacity=".11"/><circle cx="47.8" cy="72.6" r="0.46" fill="#44384b" opacity=".11"/><circle cx="80.5" cy="63.7" r="0.56" fill="#44384b" opacity=".11"/><circle cx="61.3" cy="73.2" r="0.78" fill="#e1d6e8" opacity=".11"/><circle cx="102.3" cy="89.7" r="0.27" fill="#44384b" opacity=".11"/><circle cx="39.9" cy="57.7" r="0.67" fill="#e1d6e8" opacity=".11"/><circle cx="25.4" cy="23.5" r="0.42" fill="#44384b" opacity=".11"/><circle cx="68.9" cy="36.2" r="0.79" fill="#e1d6e8" opacity=".11"/><circle cx="86.0" cy="56.5" r="0.51" fill="#44384b" opacity=".11"/><circle cx="53.0" cy="102.6" r="0.78" fill="#e1d6e8" opacity=".11"/><circle cx="79.8" cy="30.6" r="0.80" fill="#e1d6e8" opacity=".11"/><circle cx="45.3" cy="71.9" r="0.41" fill="#e1d6e8" opacity=".11"/><circle cx="43.6" cy="94.7" r="0.75" fill="#44384b" opacity=".11"/><circle cx="85.7" cy="22.7" r="0.43" fill="#44384b" opacity=".11"/><circle cx="53.5" cy="71.0" r="0.35" fill="#e1d6e8" opacity=".11"/><circle cx="54.3" cy="78.4" r="0.63" fill="#44384b" opacity=".11"/><circle cx="96.9" cy="22.0" r="0.76" fill="#44384b" opacity=".11"/><circle cx="46.6" cy="94.8" r="0.45" fill="#44384b" opacity=".11"/><circle cx="80.6" cy="53.6" r="0.70" fill="#44384b" opacity=".11"/><circle cx="53.9" cy="45.8" r="0.46" fill="#44384b" opacity=".11"/><circle cx="45.4" cy="46.9" r="0.78" fill="#e1d6e8" opacity=".11"/><circle cx="88.3" cy="94.8" r="0.36" fill="#e1d6e8" opacity=".11"/><circle cx="29.6" cy="34.9" r="0.30" fill="#e1d6e8" opacity=".11"/><circle cx="59.0" cy="77.2" r="0.36" fill="#e1d6e8" opacity=".11"/><circle cx="59.1" cy="30.4" r="0.60" fill="#44384b" opacity=".11"/><circle cx="89.5" cy="33.0" r="0.42" fill="#e1d6e8" opacity=".11"/><circle cx="79.8" cy="64.1" r="0.31" fill="#44384b" opacity=".11"/><circle cx="101.4" cy="48.0" r="0.55" fill="#e1d6e8" opacity=".11"/><circle cx="40.9" cy="44.9" r="0.73" fill="#e1d6e8" opacity=".11"/><circle cx="53.2" cy="55.0" r="0.25" fill="#e1d6e8" opacity=".11"/><circle cx="88.4" cy="104.4" r="0.47" fill="#e1d6e8" opacity=".11"/><circle cx="93.2" cy="86.4" r="0.42" fill="#44384b" opacity=".11"/><circle cx="89.9" cy="54.9" r="0.66" fill="#e1d6e8" opacity=".11"/><circle cx="58.1" cy="55.9" r="0.37" fill="#44384b" opacity=".11"/><circle cx="86.9" cy="89.6" r="0.38" fill="#44384b" opacity=".11"/><circle cx="91.6" cy="95.4" r="0.41" fill="#44384b" opacity=".11"/><circle cx="92.6" cy="34.3" r="0.70" fill="#44384b" opacity=".11"/><circle cx="37.5" cy="46.1" r="0.42" fill="#44384b" opacity=".11"/><circle cx="37.6" cy="80.0" r="0.35" fill="#44384b" opacity=".11"/><circle cx="39.9" cy="56.3" r="0.76" fill="#44384b" opacity=".11"/><circle cx="88.7" cy="44.8" r="0.41" fill="#e1d6e8" opacity=".11"/><circle cx="108.5" cy="21.0" r="0.72" fill="#44384b" opacity=".11"/><circle cx="19.1" cy="48.3" r="0.80" fill="#44384b" opacity=".11"/><circle cx="67.7" cy="86.7" r="0.41" fill="#44384b" opacity=".11"/><circle cx="58.0" cy="69.0" r="0.75" fill="#e1d6e8" opacity=".11"/><circle cx="66.6" cy="79.9" r="0.61" fill="#44384b" opacity=".11"/><circle cx="25.6" cy="73.8" r="0.27" fill="#e1d6e8" opacity=".11"/><circle cx="29.7" cy="63.7" r="0.48" fill="#e1d6e8" opacity=".11"/><circle cx="51.2" cy="33.4" r="0.52" fill="#e1d6e8" opacity=".11"/><circle cx="87.8" cy="37.8" r="0.71" fill="#e1d6e8" opacity=".11"/><circle cx="20.3" cy="61.3" r="0.71" fill="#44384b" opacity=".11"/><circle cx="24.5" cy="37.3" r="0.34" fill="#e1d6e8" opacity=".11"/><circle cx="72.5" cy="99.5" r="0.45" fill="#44384b" opacity=".11"/><circle cx="24.9" cy="72.9" r="0.76" fill="#44384b" opacity=".11"/><circle cx="77.5" cy="57.4" r="0.74" fill="#e1d6e8" opacity=".11"/><circle cx="69.7" cy="75.2" r="0.51" fill="#e1d6e8" opacity=".11"/><circle cx="23.2" cy="28.9" r="0.51" fill="#e1d6e8" opacity=".11"/><circle cx="97.1" cy="30.6" r="0.79" fill="#e1d6e8" opacity=".11"/><circle cx="91.5" cy="40.5" r="0.40" fill="#e1d6e8" opacity=".11"/><circle cx="107.3" cy="86.8" r="0.60" fill="#e1d6e8" opacity=".11"/><circle cx="33.0" cy="89.9" r="0.45" fill="#44384b" opacity=".11"/><circle cx="74.6" cy="47.5" r="0.75" fill="#44384b" opacity=".11"/><circle cx="63.1" cy="63.0" r="0.59" fill="#e1d6e8" opacity=".11"/><circle cx="53.1" cy="82.0" r="0.25" fill="#e1d6e8" opacity=".11"/><circle cx="33.1" cy="84.2" r="0.43" fill="#44384b" opacity=".11"/><circle cx="37.6" cy="83.4" r="0.48" fill="#e1d6e8" opacity=".11"/><circle cx="82.4" cy="61.2" r="0.28" fill="#e1d6e8" opacity=".11"/><circle cx="74.3" cy="33.0" r="0.63" fill="#e1d6e8" opacity=".11"/><circle cx="53.7" cy="41.6" r="0.34" fill="#e1d6e8" opacity=".11"/><circle cx="45.0" cy="23.5" r="0.33" fill="#44384b" opacity=".11"/><circle cx="54.0" cy="44.6" r="0.35" fill="#e1d6e8" opacity=".11"/><circle cx="77.5" cy="91.1" r="0.74" fill="#e1d6e8" opacity=".11"/><circle cx="50.9" cy="87.9" r="0.37" fill="#e1d6e8" opacity=".11"/><circle cx="19.6" cy="71.5" r="0.60" fill="#e1d6e8" opacity=".11"/><circle cx="107.7" cy="48.3" r="0.35" fill="#44384b" opacity=".11"/><circle cx="18.9" cy="70.6" r="0.44" fill="#e1d6e8" opacity=".11"/><circle cx="20.5" cy="54.6" r="0.28" fill="#e1d6e8" opacity=".11"/><circle cx="35.1" cy="76.4" r="0.29" fill="#e1d6e8" opacity=".11"/><circle cx="70.9" cy="71.0" r="0.44" fill="#e1d6e8" opacity=".11"/><circle cx="104.7" cy="34.2" r="0.26" fill="#e1d6e8" opacity=".11"/><circle cx="33.1" cy="19.7" r="0.39" fill="#44384b" opacity=".11"/><circle cx="20.2" cy="96.7" r="0.65" fill="#e1d6e8" opacity=".11"/><circle cx="27.3" cy="97.9" r="0.64" fill="#e1d6e8" opacity=".11"/><circle cx="103.8" cy="28.7" r="0.76" fill="#44384b" opacity=".11"/><circle cx="83.1" cy="96.5" r="0.73" fill="#e1d6e8" opacity=".11"/><circle cx="102.6" cy="82.8" r="0.30" fill="#e1d6e8" opacity=".11"/><circle cx="107.4" cy="54.4" r="0.70" fill="#e1d6e8" opacity=".11"/><circle cx="81.4" cy="73.1" r="0.76" fill="#44384b" opacity=".11"/><circle cx="81.6" cy="80.3" r="0.29" fill="#44384b" opacity=".11"/><circle cx="50.9" cy="90.8" r="0.60" fill="#44384b" opacity=".11"/><circle cx="101.3" cy="22.8" r="0.78" fill="#e1d6e8" opacity=".11"/><circle cx="59.3" cy="29.3" r="0.43" fill="#e1d6e8" opacity=".11"/><circle cx="63.1" cy="19.1" r="0.69" fill="#44384b" opacity=".11"/><circle cx="64.9" cy="64.5" r="0.33" fill="#e1d6e8" opacity=".11"/><circle cx="38.2" cy="90.6" r="0.79" fill="#e1d6e8" opacity=".11"/><circle cx="35.8" cy="45.8" r="0.50" fill="#e1d6e8" opacity=".11"/><circle cx="103.1" cy="70.9" r="0.69" fill="#e1d6e8" opacity=".11"/><circle cx="58.2" cy="56.5" r="0.67" fill="#44384b" opacity=".11"/><circle cx="59.6" cy="27.8" r="0.43" fill="#e1d6e8" opacity=".11"/><circle cx="94.4" cy="48.4" r="0.50" fill="#e1d6e8" opacity=".11"/><circle cx="101.1" cy="76.9" r="0.26" fill="#44384b" opacity=".11"/><circle cx="99.2" cy="58.8" r="0.70" fill="#44384b" opacity=".11"/><circle cx="55.6" cy="32.9" r="0.73" fill="#44384b" opacity=".11"/><circle cx="68.0" cy="95.2" r="0.78" fill="#e1d6e8" opacity=".11"/><circle cx="55.4" cy="86.2" r="0.60" fill="#44384b" opacity=".11"/><circle cx="102.5" cy="55.0" r="0.56" fill="#44384b" opacity=".11"/><circle cx="67.2" cy="99.3" r="0.50" fill="#44384b" opacity=".11"/><circle cx="68.6" cy="104.0" r="0.76" fill="#e1d6e8" opacity=".11"/><circle cx="99.7" cy="55.5" r="0.79" fill="#44384b" opacity=".11"/><circle cx="72.6" cy="56.7" r="0.50" fill="#e1d6e8" opacity=".11"/><circle cx="93.9" cy="71.7" r="0.64" fill="#44384b" opacity=".11"/><circle cx="99.7" cy="76.3" r="0.61" fill="#44384b" opacity=".11"/><circle cx="95.5" cy="66.0" r="0.71" fill="#44384b" opacity=".11"/><circle cx="93.3" cy="88.3" r="0.76" fill="#e1d6e8" opacity=".11"/><circle cx="72.6" cy="19.6" r="0.53" fill="#e1d6e8" opacity=".11"/><circle cx="63.7" cy="51.0" r="0.77" fill="#44384b" opacity=".11"/><circle cx="96.2" cy="93.5" r="0.43" fill="#44384b" opacity=".11"/><circle cx="20.1" cy="40.1" r="0.65" fill="#e1d6e8" opacity=".11"/><circle cx="21.7" cy="72.2" r="0.69" fill="#44384b" opacity=".11"/><circle cx="99.6" cy="74.8" r="0.68" fill="#e1d6e8" opacity=".11"/><circle cx="42.6" cy="79.7" r="0.46" fill="#44384b" opacity=".11"/><circle cx="54.8" cy="75.8" r="0.73" fill="#e1d6e8" opacity=".11"/><circle cx="63.7" cy="74.5" r="0.56" fill="#44384b" opacity=".11"/><circle cx="18.0" cy="98.0" r="0.38" fill="#44384b" opacity=".11"/><circle cx="96.4" cy="92.7" r="0.34" fill="#e1d6e8" opacity=".11"/><circle cx="51.5" cy="32.1" r="0.32" fill="#e1d6e8" opacity=".11"/><circle cx="60.8" cy="66.7" r="0.46" fill="#e1d6e8" opacity=".11"/><circle cx="49.8" cy="87.8" r="0.63" fill="#44384b" opacity=".11"/><circle cx="67.4" cy="59.7" r="0.28" fill="#44384b" opacity=".11"/><circle cx="76.8" cy="100.7" r="0.34" fill="#44384b" opacity=".11"/><circle cx="86.5" cy="49.3" r="0.73" fill="#44384b" opacity=".11"/><circle cx="65.5" cy="100.6" r="0.49" fill="#e1d6e8" opacity=".11"/><circle cx="54.5" cy="101.2" r="0.68" fill="#44384b" opacity=".11"/><circle cx="27.8" cy="76.2" r="0.56" fill="#e1d6e8" opacity=".11"/><circle cx="108.1" cy="88.6" r="0.77" fill="#e1d6e8" opacity=".11"/><circle cx="47.9" cy="98.5" r="0.49" fill="#e1d6e8" opacity=".11"/><circle cx="84.1" cy="31.6" r="0.27" fill="#44384b" opacity=".11"/><circle cx="45.1" cy="61.9" r="0.64" fill="#44384b" opacity=".11"/><circle cx="85.2" cy="56.2" r="0.70" fill="#44384b" opacity=".11"/><circle cx="69.2" cy="71.1" r="0.32" fill="#44384b" opacity=".11"/><circle cx="33.8" cy="56.2" r="0.69" fill="#e1d6e8" opacity=".11"/><circle cx="31.7" cy="83.1" r="0.73" fill="#44384b" opacity=".11"/><circle cx="82.6" cy="86.7" r="0.73" fill="#44384b" opacity=".11"/><circle cx="86.4" cy="76.1" r="0.63" fill="#44384b" opacity=".11"/><circle cx="20.0" cy="84.0" r="0.51" fill="#44384b" opacity=".11"/><circle cx="37.7" cy="78.3" r="0.45" fill="#e1d6e8" opacity=".11"/><circle cx="81.0" cy="82.2" r="0.59" fill="#e1d6e8" opacity=".11"/><circle cx="26.1" cy="94.1" r="0.49" fill="#44384b" opacity=".11"/><circle cx="108.5" cy="51.8" r="0.68" fill="#e1d6e8" opacity=".11"/><circle cx="82.4" cy="74.4" r="0.68" fill="#44384b" opacity=".11"/><circle cx="60.9" cy="92.4" r="0.34" fill="#e1d6e8" opacity=".11"/><circle cx="76.1" cy="69.1" r="0.80" fill="#44384b" opacity=".11"/><circle cx="48.3" cy="68.6" r="0.78" fill="#44384b" opacity=".11"/><circle cx="27.6" cy="103.6" r="0.41" fill="#44384b" opacity=".11"/><circle cx="45.0" cy="26.0" r="0.41" fill="#44384b" opacity=".11"/><circle cx="27.0" cy="24.8" r="0.58" fill="#44384b" opacity=".11"/><circle cx="80.3" cy="59.6" r="0.77" fill="#e1d6e8" opacity=".11"/><circle cx="47.0" cy="72.3" r="0.27" fill="#e1d6e8" opacity=".11"/><circle cx="50.4" cy="60.8" r="0.47" fill="#44384b" opacity=".11"/><circle cx="36.3" cy="92.8" r="0.62" fill="#44384b" opacity=".11"/><circle cx="33.0" cy="93.7" r="0.68" fill="#e1d6e8" opacity=".11"/><circle cx="40.1" cy="37.5" r="0.43" fill="#e1d6e8" opacity=".11"/><circle cx="103.8" cy="52.7" r="0.64" fill="#44384b" opacity=".11"/><circle cx="56.2" cy="28.0" r="0.56" fill="#44384b" opacity=".11"/><circle cx="45.7" cy="56.0" r="0.33" fill="#e1d6e8" opacity=".11"/><circle cx="33.9" cy="54.3" r="0.40" fill="#e1d6e8" opacity=".11"/><circle cx="18.8" cy="82.1" r="0.57" fill="#e1d6e8" opacity=".11"/><circle cx="92.4" cy="65.2" r="0.70" fill="#e1d6e8" opacity=".11"/><circle cx="105.7" cy="34.1" r="0.43" fill="#44384b" opacity=".11"/><circle cx="81.8" cy="78.5" r="0.52" fill="#e1d6e8" opacity=".11"/><circle cx="108.7" cy="39.7" r="0.25" fill="#44384b" opacity=".11"/><circle cx="101.1" cy="27.9" r="0.55" fill="#e1d6e8" opacity=".11"/><circle cx="66.5" cy="79.0" r="0.80" fill="#e1d6e8" opacity=".11"/><circle cx="48.4" cy="97.9" r="0.39" fill="#44384b" opacity=".11"/><circle cx="106.8" cy="25.3" r="0.49" fill="#e1d6e8" opacity=".11"/><circle cx="104.9" cy="27.8" r="0.46" fill="#44384b" opacity=".11"/><circle cx="61.4" cy="74.4" r="0.48" fill="#e1d6e8" opacity=".11"/><circle cx="69.9" cy="36.3" r="0.49" fill="#e1d6e8" opacity=".11"/><circle cx="91.5" cy="76.8" r="0.42" fill="#e1d6e8" opacity=".11"/><circle cx="92.1" cy="76.4" r="0.76" fill="#e1d6e8" opacity=".11"/><circle cx="23.9" cy="33.9" r="0.74" fill="#44384b" opacity=".11"/><circle cx="47.2" cy="102.1" r="0.60" fill="#44384b" opacity=".11"/><circle cx="30.0" cy="36.6" r="0.59" fill="#e1d6e8" opacity=".11"/><circle cx="22.9" cy="32.7" r="0.35" fill="#44384b" opacity=".11"/><circle cx="48.6" cy="34.7" r="0.70" fill="#e1d6e8" opacity=".11"/><circle cx="47.1" cy="30.5" r="0.61" fill="#44384b" opacity=".11"/><circle cx="53.3" cy="82.6" r="0.29" fill="#e1d6e8" opacity=".11"/><circle cx="30.5" cy="90.9" r="0.49" fill="#e1d6e8" opacity=".11"/><circle cx="106.3" cy="92.9" r="0.70" fill="#e1d6e8" opacity=".11"/><circle cx="31.4" cy="91.9" r="0.64" fill="#44384b" opacity=".11"/><circle cx="26.0" cy="27.1" r="0.58" fill="#44384b" opacity=".11"/><circle cx="83.3" cy="73.9" r="0.39" fill="#44384b" opacity=".11"/><circle cx="22.3" cy="102.3" r="0.69" fill="#44384b" opacity=".11"/><circle cx="60.0" cy="81.1" r="0.77" fill="#44384b" opacity=".11"/><circle cx="33.3" cy="78.4" r="0.62" fill="#44384b" opacity=".11"/><circle cx="61.3" cy="49.0" r="0.80" fill="#e1d6e8" opacity=".11"/><circle cx="30.4" cy="65.6" r="0.79" fill="#44384b" opacity=".11"/><circle cx="37.7" cy="52.5" r="0.29" fill="#44384b" opacity=".11"/><path d="M23 17H104L110 24M16 25V101L23 108H103" fill="none" stroke="#cab7d5" stroke-width="1.3"/><path d="M111 27V103L105 110H26" fill="none" stroke="#745f80" stroke-width="1.2"/><path d="M5 12L28 34M114 5L96 32M115 118L94 94M13 119L32 96" fill="none" stroke="#6b5876" stroke-width="1.3" opacity=".65"/><path d="M7 12L29 33M114 8L97 33M113 115L95 93M15 116L33 97" fill="none" stroke="#d0bfda" stroke-width=".85" opacity=".7"/></svg>